<?xml version="1.0" standalone="no"?>
<!DOCTYPE svg PUBLIC "-//W3C//DTD SVG 20010904//EN"
 "http://www.w3.org/TR/2001/REC-SVG-20010904/DTD/svg10.dtd">
<svg version="1.0" xmlns="http://www.w3.org/2000/svg"
 width="260.000000pt" height="260.000000pt" viewBox="0 0 260.000000 260.000000"
 preserveAspectRatio="xMidYMid meet">
<metadata>
Created by potrace 1.11, written by Peter Selinger 2001-2013
</metadata>
<g transform="translate(0.000000,260.000000) scale(0.100000,-0.100000)"
fill="#000000" stroke="none">
<path d="M0 1300 l0 -1300 1300 0 1300 0 0 1300 0 1300 -1300 0 -1300 0 0
-1300z m1410 462 c108 -36 195 -121 221 -215 18 -66 13 -175 -10 -238 -53
-140 -185 -209 -403 -209 l-108 0 0 -175 0 -175 -120 0 -120 0 0 516 0 515
253 -4 c155 -2 266 -8 287 -15z m304 -801 c103 -68 53 -221 -72 -221 -67 0
-133 83 -118 147 4 15 23 42 42 60 29 27 44 33 77 33 25 0 54 -8 71 -19z"/>
<path d="M1110 1440 l0 -160 91 0 c147 0 201 42 202 159 1 118 -53 161 -200
161 l-93 0 0 -160z"/>
</g>
</svg>
